# xmcd
#
# Track frame offsets: 
#        150
#        12607
#        26179
#        37325
#        44439
#        58131
#        75723
#        82823
#        89412
#        100104
#        112220
#        132521
#        138514
#        144632
#        151703
#        171121
#        188393
#        192980
#        197287
#        202998
#        211793
#        225391
#        238525
#        246093
#        259348
#        267115
#
# Disc length: 4002 seconds
#
# Revision: 1
# Processed by: cddbd v1.5.2PL0 Copyright (c) Steve Scherf et al.
# Submitted via: ExactAudioCopy v0.99pb5
#
DISCID=6a0fa01a
DTITLE=Eric Colvin - Monte Walsh and Crossfire Trail
DYEAR=2002
DGENRE=Soundtrack
TTITLE0=Cowboy Lullaby
TTITLE1=Monte Walsh Main Title
TTITLE2=Monte and Martine Have A Smoke
TTITLE3=Joe Hooker - Fun in Town
TTITLE4=Mustang Roundup
TTITLE5=Train Fight
TTITLE6=Martine's Goodbye
TTITLE7=Porch Nap - Short Gets Laid Off
TTITLE8=Kill The Marshall
TTITLE9=Missing Martine
TTITLE10=Monte Stomps the Bronco
TTITLE11=Rustled Cattle
TTITLE12=Brady Gets Killed - Shorty Kills Chet
TTITLE13=Search For Shorty
TTITLE14=Martine's Death
TTITLE15=Blind Rage
TTITLE16=Martine's Grave
TTITLE17=Jump the Car
TTITLE18=Cowboy Lullaby (Film Version)
TTITLE19=Mountain Trek
TTITLE20=Rodney Ranch Arrival
TTITLE21=Horse Roundup
TTITLE22=Ranch Work
TTITLE23=Rafe's Promise
TTITLE24=Funeral for JT
TTITLE25=Hell Breaks Loose
EXTD=
EXTT0=
EXTT1=
EXTT2=
EXTT3=
EXTT4=
EXTT5=
EXTT6=
EXTT7=
EXTT8=
EXTT9=
EXTT10=
EXTT11=
EXTT12=
EXTT13=
EXTT14=
EXTT15=
EXTT16=
EXTT17=
EXTT18=
EXTT19=
EXTT20=
EXTT21=
EXTT22=
EXTT23=
EXTT24=
EXTT25=
PLAYORDER=
